<svg width="54" height="57" viewBox="0 0 54 57" fill="none" xmlns="http://www.w3.org/2000/svg">
<path d="M27.8321 20.5258H25.6679L24.4655 0.249987H29.0345L27.8321 20.5258Z" fill="url(#paint0_linear_48_18)" stroke="url(#paint1_linear_48_18)" stroke-width="0.5"/>
<path d="M31.3423 22.1324L29.4681 20.989L38.0216 2.79438L41.9784 5.20817L31.3423 22.1324Z" fill="url(#paint2_linear_48_18)" stroke="url(#paint3_linear_48_18)" stroke-width="0.5"/>
<path d="M33.622 25.3781L32.5399 23.3977L48.5574 12.1596L50.8419 16.3404L33.622 25.3781Z" fill="url(#paint4_linear_48_18)" stroke="url(#paint5_linear_48_18)" stroke-width="0.5"/>
<path d="M34.0603 29.3934V27.1066L53.25 25.8362V30.6638L34.0603 29.3934Z" fill="url(#paint6_linear_48_18)" stroke="url(#paint7_linear_48_18)" stroke-width="0.5"/>
<path d="M32.5399 33.1022L33.622 31.1219L50.8419 40.1596L48.5574 44.3404L32.5399 33.1022Z" fill="url(#paint8_linear_48_18)" stroke="url(#paint9_linear_48_18)" stroke-width="0.5"/>
<path d="M29.468 35.511L31.3423 34.3676L41.9784 51.2918L38.0216 53.7056L29.468 35.511Z" fill="url(#paint10_linear_48_18)" stroke="url(#paint11_linear_48_18)" stroke-width="0.5"/>
<path d="M25.6679 35.9742H27.8321L29.0345 56.25H24.4655L25.6679 35.9742Z" fill="url(#paint12_linear_48_18)" stroke="url(#paint13_linear_48_18)" stroke-width="0.5"/>
<path d="M22.1577 34.3676L24.0319 35.511L15.4784 53.7056L11.5216 51.2918L22.1577 34.3676Z" fill="url(#paint14_linear_48_18)" stroke="url(#paint15_linear_48_18)" stroke-width="0.5"/>
<path d="M19.878 31.1219L20.9601 33.1023L4.94256 44.3404L2.65808 40.1596L19.878 31.1219Z" fill="url(#paint16_linear_48_18)" stroke="url(#paint17_linear_48_18)" stroke-width="0.5"/>
<path d="M19.4397 27.1066V29.3934L0.25 30.6638V25.8362L19.4397 27.1066Z" fill="url(#paint18_linear_48_18)" stroke="url(#paint19_linear_48_18)" stroke-width="0.5"/>
<path d="M20.9601 23.3978L19.878 25.3781L2.65808 16.3404L4.94256 12.1596L20.9601 23.3978Z" fill="url(#paint20_linear_48_18)" stroke="url(#paint21_linear_48_18)" stroke-width="0.5"/>
<path d="M24.032 20.989L22.1577 22.1324L11.5216 5.20817L15.4784 2.79437L24.032 20.989Z" fill="url(#paint22_linear_48_18)" stroke="url(#paint23_linear_48_18)" stroke-width="0.5"/>
<defs>
<linearGradient id="paint0_linear_48_18" x1="26.75" y1="20.5258" x2="26.75" y2="0.249987" gradientUnits="userSpaceOnUse">
<stop offset="0.183878" stop-color="#EFDF97"/>
<stop offset="1" stop-color="#898057" stop-opacity="0"/>
</linearGradient>
<linearGradient id="paint1_linear_48_18" x1="26.4499" y1="0.249986" x2="26.8734" y2="20.5258" gradientUnits="userSpaceOnUse">
<stop stop-color="#7A724E" stop-opacity="0"/>
<stop offset="0.48318" stop-color="#CEB963"/>
</linearGradient>
<linearGradient id="paint2_linear_48_18" x1="30.4052" y1="21.5607" x2="40.8141" y2="4.49785" gradientUnits="userSpaceOnUse">
<stop offset="0.183878" stop-color="#EFDF97"/>
<stop offset="1" stop-color="#898057" stop-opacity="0"/>
</linearGradient>
<linearGradient id="paint3_linear_48_18" x1="39.7401" y1="3.84272" x2="29.668" y2="21.1341" gradientUnits="userSpaceOnUse">
<stop stop-color="#7A724E" stop-opacity="0"/>
<stop offset="0.48318" stop-color="#CEB963"/>
</linearGradient>
<linearGradient id="paint4_linear_48_18" x1="33.0809" y1="24.3879" x2="50.1445" y2="15.064" gradientUnits="userSpaceOnUse">
<stop offset="0.183878" stop-color="#EFDF97"/>
<stop offset="1" stop-color="#898057" stop-opacity="0"/>
</linearGradient>
<linearGradient id="paint5_linear_48_18" x1="49.5496" y1="13.9754" x2="32.6488" y2="23.6368" gradientUnits="userSpaceOnUse">
<stop stop-color="#7A724E" stop-opacity="0"/>
<stop offset="0.48318" stop-color="#CEB963"/>
</linearGradient>
<linearGradient id="paint6_linear_48_18" x1="34.0603" y1="28.25" x2="53.25" y2="28.25" gradientUnits="userSpaceOnUse">
<stop offset="0.183878" stop-color="#EFDF97"/>
<stop offset="1" stop-color="#898057" stop-opacity="0"/>
</linearGradient>
<linearGradient id="paint7_linear_48_18" x1="53.25" y1="27.9329" x2="34.0588" y2="28.292" gradientUnits="userSpaceOnUse">
<stop stop-color="#7A724E" stop-opacity="0"/>
<stop offset="0.48318" stop-color="#CEB963"/>
</linearGradient>
<linearGradient id="paint8_linear_48_18" x1="33.0809" y1="32.112" x2="50.1445" y2="41.4359" gradientUnits="userSpaceOnUse">
<stop offset="0.183878" stop-color="#EFDF97"/>
<stop offset="1" stop-color="#898057" stop-opacity="0"/>
</linearGradient>
<linearGradient id="paint9_linear_48_18" x1="49.8497" y1="41.9753" x2="32.6219" y2="32.9866" gradientUnits="userSpaceOnUse">
<stop stop-color="#7A724E" stop-opacity="0"/>
<stop offset="0.48318" stop-color="#CEB963"/>
</linearGradient>
<linearGradient id="paint10_linear_48_18" x1="30.4051" y1="34.9393" x2="40.814" y2="52.0022" gradientUnits="userSpaceOnUse">
<stop offset="0.183878" stop-color="#EFDF97"/>
<stop offset="1" stop-color="#898057" stop-opacity="0"/>
</linearGradient>
<linearGradient id="paint11_linear_48_18" x1="40.2599" y1="52.3402" x2="29.5152" y2="35.5044" gradientUnits="userSpaceOnUse">
<stop stop-color="#7A724E" stop-opacity="0"/>
<stop offset="0.48318" stop-color="#CEB963"/>
</linearGradient>
<linearGradient id="paint12_linear_48_18" x1="26.75" y1="35.9742" x2="26.75" y2="56.25" gradientUnits="userSpaceOnUse">
<stop offset="0.183878" stop-color="#EFDF97"/>
<stop offset="1" stop-color="#898057" stop-opacity="0"/>
</linearGradient>
<linearGradient id="paint13_linear_48_18" x1="27.0501" y1="56.25" x2="26.6266" y2="35.9742" gradientUnits="userSpaceOnUse">
<stop stop-color="#7A724E" stop-opacity="0"/>
<stop offset="0.48318" stop-color="#CEB963"/>
</linearGradient>
<linearGradient id="paint14_linear_48_18" x1="23.0948" y1="34.9393" x2="12.686" y2="52.0021" gradientUnits="userSpaceOnUse">
<stop offset="0.183878" stop-color="#EFDF97"/>
<stop offset="1" stop-color="#898057" stop-opacity="0"/>
</linearGradient>
<linearGradient id="paint15_linear_48_18" x1="13.7599" y1="52.6573" x2="23.832" y2="35.3659" gradientUnits="userSpaceOnUse">
<stop stop-color="#7A724E" stop-opacity="0"/>
<stop offset="0.48318" stop-color="#CEB963"/>
</linearGradient>
<linearGradient id="paint16_linear_48_18" x1="20.419" y1="32.1121" x2="3.3555" y2="41.436" gradientUnits="userSpaceOnUse">
<stop offset="0.183878" stop-color="#EFDF97"/>
<stop offset="1" stop-color="#898057" stop-opacity="0"/>
</linearGradient>
<linearGradient id="paint17_linear_48_18" x1="3.95038" y1="42.5246" x2="20.8512" y2="32.8632" gradientUnits="userSpaceOnUse">
<stop stop-color="#7A724E" stop-opacity="0"/>
<stop offset="0.48318" stop-color="#CEB963"/>
</linearGradient>
<linearGradient id="paint18_linear_48_18" x1="19.4397" y1="28.25" x2="0.25" y2="28.25" gradientUnits="userSpaceOnUse">
<stop offset="0.183878" stop-color="#EFDF97"/>
<stop offset="1" stop-color="#898057" stop-opacity="0"/>
</linearGradient>
<linearGradient id="paint19_linear_48_18" x1="0.249999" y1="28.5671" x2="19.4412" y2="28.208" gradientUnits="userSpaceOnUse">
<stop stop-color="#7A724E" stop-opacity="0"/>
<stop offset="0.48318" stop-color="#CEB963"/>
</linearGradient>
<linearGradient id="paint20_linear_48_18" x1="20.419" y1="24.388" x2="3.3555" y2="15.0641" gradientUnits="userSpaceOnUse">
<stop offset="0.183878" stop-color="#EFDF97"/>
<stop offset="1" stop-color="#898057" stop-opacity="0"/>
</linearGradient>
<linearGradient id="paint21_linear_48_18" x1="3.65026" y1="14.5247" x2="20.8781" y2="23.5134" gradientUnits="userSpaceOnUse">
<stop stop-color="#7A724E" stop-opacity="0"/>
<stop offset="0.48318" stop-color="#CEB963"/>
</linearGradient>
<linearGradient id="paint22_linear_48_18" x1="23.0949" y1="21.5607" x2="12.686" y2="4.49785" gradientUnits="userSpaceOnUse">
<stop offset="0.183878" stop-color="#EFDF97"/>
<stop offset="1" stop-color="#898057" stop-opacity="0"/>
</linearGradient>
<linearGradient id="paint23_linear_48_18" x1="13.2401" y1="4.15983" x2="23.9848" y2="20.9956" gradientUnits="userSpaceOnUse">
<stop stop-color="#7A724E" stop-opacity="0"/>
<stop offset="0.48318" stop-color="#CEB963"/>
</linearGradient>
</defs>
</svg>
