<svg width="12" height="16" viewBox="0 0 12 16" fill="none" xmlns="http://www.w3.org/2000/svg">
<path d="M2.96287 0L1.97522 1.18519L2.96287 2.17284H8.29621L9.28386 0.987654L8.29621 0H2.96287Z" fill="#FDF33C"/>
<path d="M2.96287 13.8271L1.97522 15.0123L2.96287 16H8.29621L9.28386 14.8148L8.29621 13.8271H2.96287Z" fill="#FDF33C"/>
<path d="M0 7.04706L1.29293 7.90125L2.37037 7.04706L2.37037 2.43444L1.07744 1.58026L0 2.43444L0 7.04706Z" fill="#FDF33C"/>
<path d="M0 13.7631L1.29293 14.6172L2.37037 13.7631L2.37037 9.15045L1.07744 8.29626L0 9.15045L0 13.7631Z" fill="#FDF33C"/>
<path d="M8.69141 7.04706L9.98434 7.90125L11.0618 7.04706V2.43444L9.76885 1.58026L8.69141 2.43444V7.04706Z" fill="#FDF33C"/>
<path d="M8.69141 13.7631L9.98434 14.6172L11.0618 13.7631V9.15045L9.76885 8.29626L8.69141 9.15045V13.7631Z" fill="#FDF33C"/>
</svg>
