<svg width="10" height="16" viewBox="0 0 10 16" fill="none" xmlns="http://www.w3.org/2000/svg">
<path d="M0.987654 0L0 1.18519L0.987654 2.17284H6.32099L7.30864 0.987654L6.32099 0H0.987654Z" fill="#FDF33C"/>
<path d="M0.987654 7.11108L0 8.29627L0.987654 9.28392H6.32099L7.30864 8.09874L6.32099 7.11108H0.987654Z" fill="#FDF33C"/>
<path d="M0.987654 13.8271L0 15.0123L0.987654 16H6.32099L7.30864 14.8148L6.32099 13.8271H0.987654Z" fill="#FDF33C"/>
<path d="M6.71619 7.04706L8.00912 7.90125L9.08656 7.04706V2.43444L7.79363 1.58026L6.71619 2.43444V7.04706Z" fill="#FDF33C"/>
<path d="M6.71619 13.7631L8.00912 14.6172L9.08656 13.7631V9.15045L7.79363 8.29626L6.71619 9.15045V13.7631Z" fill="#FDF33C"/>
</svg>
