<svg width="14" height="20" viewBox="0 0 14 20" fill="none" xmlns="http://www.w3.org/2000/svg">
<path d="M3.68852 0L2.45901 1.47541L3.68852 2.70492H10.3279L11.5574 1.22951L10.3279 0H3.68852Z" fill="#D9D9D9" fill-opacity="0.2"/>
<path d="M3.68852 8.85248L2.45901 10.3279L3.68852 11.5574H10.3279L11.5574 10.082L10.3279 8.85248H3.68852Z" fill="#D9D9D9" fill-opacity="0.2"/>
<path d="M3.68852 17.2131L2.45901 18.6885L3.68852 19.9181H10.3279L11.5574 18.4426L10.3279 17.2131H3.68852Z" fill="#D9D9D9" fill-opacity="0.2"/>
<path d="M0 8.7727L1.60954 9.83606L2.95082 8.7727L2.95082 3.03057L1.34128 1.96721L0 3.03057L0 8.7727Z" fill="#D9D9D9" fill-opacity="0.2"/>
<path d="M0 17.1334L1.60954 18.1967L2.95082 17.1334L2.95082 11.3912L1.34128 10.3279L0 11.3912L0 17.1334Z" fill="#D9D9D9" fill-opacity="0.2"/>
<path d="M10.8197 8.7727L12.4292 9.83606L13.7705 8.7727V3.03057L12.161 1.96721L10.8197 3.03057V8.7727Z" fill="#D9D9D9" fill-opacity="0.2"/>
<path d="M10.8197 17.1334L12.4292 18.1967L13.7705 17.1334V11.3912L12.161 10.3279L10.8197 11.3912V17.1334Z" fill="#D9D9D9" fill-opacity="0.2"/>
</svg>
