<svg width="12" height="12" viewBox="0 0 12 12" fill="none" xmlns="http://www.w3.org/2000/svg">
<path d="M6.75 6C6.75 6.14834 6.70601 6.29334 6.6236 6.41668C6.54119 6.54001 6.42406 6.63614 6.28701 6.69291C6.14997 6.74968 5.99917 6.76453 5.85368 6.73559C5.7082 6.70665 5.57456 6.63522 5.46967 6.53033C5.36478 6.42544 5.29335 6.2918 5.26441 6.14632C5.23547 6.00083 5.25033 5.85003 5.30709 5.71299C5.36386 5.57594 5.45999 5.45881 5.58332 5.3764C5.70666 5.29399 5.85167 5.25 6 5.25C6.19891 5.25 6.38968 5.32902 6.53033 5.46967C6.67098 5.61032 6.75 5.80109 6.75 6ZM2.8125 5.25C2.66416 5.25 2.51916 5.29399 2.39582 5.3764C2.27249 5.45881 2.17636 5.57594 2.11959 5.71299C2.06282 5.85003 2.04797 6.00083 2.07691 6.14632C2.10585 6.2918 2.17728 6.42544 2.28217 6.53033C2.38706 6.63522 2.5207 6.70665 2.66618 6.73559C2.81167 6.76453 2.96247 6.74968 3.09951 6.69291C3.23656 6.63614 3.35369 6.54001 3.4361 6.41668C3.51851 6.29334 3.5625 6.14834 3.5625 6C3.5625 5.80109 3.48348 5.61032 3.34283 5.46967C3.20218 5.32902 3.01141 5.25 2.8125 5.25ZM9.1875 5.25C9.03917 5.25 8.89416 5.29399 8.77082 5.3764C8.64749 5.45881 8.55136 5.57594 8.49459 5.71299C8.43783 5.85003 8.42297 6.00083 8.45191 6.14632C8.48085 6.2918 8.55228 6.42544 8.65717 6.53033C8.76206 6.63522 8.8957 6.70665 9.04118 6.73559C9.18667 6.76453 9.33747 6.74968 9.47451 6.69291C9.61156 6.63614 9.72869 6.54001 9.8111 6.41668C9.89352 6.29334 9.9375 6.14834 9.9375 6C9.9375 5.80109 9.85848 5.61032 9.71783 5.46967C9.57718 5.32902 9.38641 5.25 9.1875 5.25Z" fill="white"/>
</svg>
