<svg width="326" height="230" viewBox="0 0 326 230" fill="none" xmlns="http://www.w3.org/2000/svg">
<rect x="1" y="1" width="324" height="228" rx="3" fill="black"/>
<rect x="1" y="1" width="324" height="228" rx="3" stroke="url(#paint0_linear_88_448)" stroke-width="2"/>
<path d="M300.5 225.736L316.5 226.138C316.5 226.138 318.916 163.155 319.002 123.5C319.102 77.398 315.002 4 315.002 4H301.002C301.002 4 304.132 76.8125 304 123.5C303.889 162.765 300.5 225.736 300.5 225.736Z" fill="url(#paint1_linear_88_448)"/>
<path d="M204.5 225.5H220.107C220.107 225.5 221.416 164.655 221.502 125C221.602 78.898 220 5 220 5H204.715C204.715 5 206.135 77.8125 206.002 124.5C205.891 163.765 204.5 225.5 204.5 225.5Z" fill="url(#paint2_linear_88_448)"/>
<path d="M105.368 225L122.5 225.498C122.5 225.498 120.916 164.655 121.002 125C121.103 78.898 121.5 5 121.5 5H105.5C105.5 5 103.635 78.3125 103.502 125C103.391 164.265 105.368 225 105.368 225Z" fill="url(#paint3_linear_88_448)"/>
<path d="M11.0064 224.5H25.5C25.5 224.5 21.916 164.655 22.0022 125C22.1024 78.898 25.0022 4.5 25.0022 4.5H11.5022C11.5022 4.5 7.13454 78.3125 7.00222 125C6.89093 164.265 11.0064 224.5 11.0064 224.5Z" fill="url(#paint4_linear_88_448)"/>
<path d="M105.5 5L25 4.5C25 4.5 21.4955 72.0312 21.5 115C21.5044 157.774 25.5 224.5 25.5 224.5L105.5 225C105.5 225 104.011 158.571 104 116C103.989 72.6478 105.5 5 105.5 5Z" fill="url(#paint5_linear_88_448)"/>
<path d="M103.967 6.49023C103.958 6.90166 103.948 7.39275 103.936 7.95898C103.894 9.89388 103.835 12.7066 103.765 16.2168C103.623 23.2374 103.434 33.0503 103.246 44.2178C102.87 66.5502 102.495 94.3106 102.5 116C102.505 137.299 102.88 164.56 103.254 186.49C103.441 197.456 103.628 207.091 103.768 213.985C103.837 217.432 103.896 220.195 103.937 222.095C103.948 222.629 103.957 223.096 103.966 223.49L26.915 223.008C26.8904 222.583 26.8607 222.067 26.8262 221.464C26.717 219.557 26.5603 216.784 26.373 213.324C25.9986 206.404 25.4995 196.73 25 185.722C24.0008 163.698 23.0022 136.351 23 115C22.9978 93.5467 23.8717 65.9457 24.7471 43.6953C25.1847 32.5731 25.6228 22.7925 25.9512 15.793C26.1153 12.2935 26.2519 9.48874 26.3477 7.55957C26.3777 6.95478 26.4033 6.43599 26.4248 6.00879L103.967 6.49023Z" stroke="#D9D9D9" stroke-opacity="0.2" stroke-width="3"/>
<path d="M204.727 5H121.5C121.5 5 120.496 73.0312 120.5 116C120.504 158.774 122 225.5 122 225.5H204.5C204.5 225.5 206.011 157.571 206 115C205.989 71.6478 204.727 5 204.727 5Z" fill="url(#paint6_linear_88_448)"/>
<path d="M203.254 6.5C203.261 6.91105 203.271 7.40448 203.281 7.97559C203.316 9.88221 203.366 12.6549 203.425 16.1172C203.543 23.0417 203.701 32.7261 203.859 43.7646C204.176 65.8441 204.495 93.3351 204.5 115C204.505 136.272 204.13 163.886 203.754 186.188C203.566 197.338 203.378 207.158 203.236 214.19C203.166 217.706 203.107 220.526 203.065 222.466C203.053 223.062 203.041 223.575 203.032 224H123.467C123.458 223.588 123.448 223.092 123.436 222.518C123.395 220.61 123.336 217.836 123.266 214.375C123.125 207.452 122.938 197.777 122.751 186.765C122.377 164.738 122.002 137.373 122 116C121.998 94.5245 122.248 66.7812 122.498 44.4033C122.623 33.2153 122.749 23.3698 122.843 16.3213C122.89 12.7971 122.93 9.97212 122.957 8.02832C122.965 7.43509 122.972 6.92392 122.979 6.5H203.254Z" stroke="#D9D9D9" stroke-opacity="0.2" stroke-width="3"/>
<path d="M301 5H220C220 5 221.496 75.0312 221.5 118C221.504 160.774 220 225.5 220 225.5H300.5C300.5 225.5 304.011 160.071 304 117.5C303.989 74.1478 301 5 301 5Z" fill="url(#paint7_linear_88_448)"/>
<path d="M299.562 6.5C299.581 6.9431 299.604 7.48471 299.63 8.11816C299.712 10.0925 299.829 12.9616 299.969 16.54C300.249 23.6976 300.623 33.6929 300.997 45.042C301.746 67.7451 302.495 95.8499 302.5 117.5C302.505 138.754 301.631 165.729 300.755 187.403C300.317 198.238 299.879 207.743 299.55 214.539C299.385 217.937 299.248 220.657 299.152 222.528C299.123 223.1 299.097 223.592 299.076 224H221.534C221.543 223.622 221.553 223.177 221.564 222.669C221.606 220.815 221.664 218.119 221.734 214.75C221.875 208.012 222.063 198.583 222.251 187.816C222.627 166.286 223.002 139.4 223 118C222.998 96.5027 222.623 68.2424 222.248 45.3623C222.061 33.9212 221.874 23.8229 221.733 16.585C221.663 12.966 221.604 10.0618 221.563 8.0625C221.551 7.45696 221.54 6.9343 221.531 6.5H299.562Z" stroke="#D9D9D9" stroke-opacity="0.2" stroke-width="3"/>
<path d="M17.5 25L19.0841 28.3197L22.7308 28.8004L20.0631 31.3328L20.7328 34.9496L17.5 33.195L14.2672 34.9496L14.9369 31.3328L12.2692 28.8004L15.9159 28.3197L17.5 25Z" fill="#D9D9D9"/>
<path d="M212.5 25L214.084 28.3197L217.731 28.8004L215.063 31.3328L215.733 34.9496L212.5 33.195L209.267 34.9496L209.937 31.3328L207.269 28.8004L210.916 28.3197L212.5 25Z" fill="#D9D9D9"/>
<path d="M112.5 24L114.084 27.3197L117.731 27.8004L115.063 30.3328L115.733 33.9496L112.5 32.195L109.267 33.9496L109.937 30.3328L107.269 27.8004L110.916 27.3197L112.5 24Z" fill="#D9D9D9"/>
<path d="M310.5 24L312.084 27.3197L315.731 27.8004L313.063 30.3328L313.733 33.9496L310.5 32.195L307.267 33.9496L307.937 30.3328L305.269 27.8004L308.916 27.3197L310.5 24Z" fill="#D9D9D9"/>
<g filter="url(#filter0_i_88_448)">
<path d="M16.6348 61.0017L18.1371 64.3592L21.7709 64.9292L19.042 67.3954L19.6229 71.0275L16.434 69.1943L13.1592 70.8691L13.9173 67.2698L11.3125 64.6728L14.9699 64.2816L16.6348 61.0017Z" fill="#D9D9D9"/>
</g>
<g filter="url(#filter1_i_88_448)">
<path d="M213.498 61.0017L215.001 64.3592L218.634 64.9292L215.905 67.3954L216.486 71.0275L213.298 69.1943L210.023 70.8691L210.781 67.2698L208.176 64.6728L211.833 64.2816L213.498 61.0017Z" fill="#D9D9D9"/>
</g>
<g filter="url(#filter2_i_88_448)">
<path d="M112.498 60.0017L114.001 63.3592L117.634 63.9292L114.905 66.3954L115.486 70.0275L112.298 68.1943L109.023 69.8691L109.781 66.2698L107.176 63.6728L110.833 63.2816L112.498 60.0017Z" fill="#D9D9D9"/>
</g>
<g filter="url(#filter3_i_88_448)">
<path d="M310.498 60.0017L312.001 63.3592L315.634 63.9292L312.905 66.3954L313.486 70.0275L310.298 68.1943L307.023 69.8691L307.781 66.2698L305.176 63.6728L308.833 63.2816L310.498 60.0017Z" fill="#D9D9D9"/>
</g>
<g filter="url(#filter4_i_88_448)">
<path d="M14.5 94L16.0841 97.3197L19.7308 97.8004L17.0631 100.333L17.7328 103.95L14.5 102.195L11.2672 103.95L11.9369 100.333L9.26919 97.8004L12.9159 97.3197L14.5 94Z" fill="#D9D9D9"/>
</g>
<g filter="url(#filter5_i_88_448)">
<path d="M213.5 94L215.084 97.3197L218.731 97.8004L216.063 100.333L216.733 103.95L213.5 102.195L210.267 103.95L210.937 100.333L208.269 97.8004L211.916 97.3197L213.5 94Z" fill="#D9D9D9"/>
</g>
<g filter="url(#filter6_i_88_448)">
<path d="M112.5 93L114.084 96.3197L117.731 96.8004L115.063 99.3328L115.733 102.95L112.5 101.195L109.267 102.95L109.937 99.3328L107.269 96.8004L110.916 96.3197L112.5 93Z" fill="#D9D9D9"/>
</g>
<g filter="url(#filter7_i_88_448)">
<path d="M310.5 93L312.084 96.3197L315.731 96.8004L313.063 99.3328L313.733 102.95L310.5 101.195L307.267 102.95L307.937 99.3328L305.269 96.8004L308.916 96.3197L310.5 93Z" fill="#D9D9D9"/>
</g>
<g filter="url(#filter8_i_88_448)">
<path d="M14.5 129L16.0841 132.32L19.7308 132.8L17.0631 135.333L17.7328 138.95L14.5 137.195L11.2672 138.95L11.9369 135.333L9.26919 132.8L12.9159 132.32L14.5 129Z" fill="#D9D9D9"/>
</g>
<g filter="url(#filter9_i_88_448)">
<path d="M213.5 129L215.084 132.32L218.731 132.8L216.063 135.333L216.733 138.95L213.5 137.195L210.267 138.95L210.937 135.333L208.269 132.8L211.916 132.32L213.5 129Z" fill="#D9D9D9"/>
</g>
<g filter="url(#filter10_i_88_448)">
<path d="M112.5 128L114.084 131.32L117.731 131.8L115.063 134.333L115.733 137.95L112.5 136.195L109.267 137.95L109.937 134.333L107.269 131.8L110.916 131.32L112.5 128Z" fill="#D9D9D9"/>
</g>
<g filter="url(#filter11_i_88_448)">
<path d="M310.5 128L312.084 131.32L315.731 131.8L313.063 134.333L313.733 137.95L310.5 136.195L307.267 137.95L307.937 134.333L305.269 131.8L308.916 131.32L310.5 128Z" fill="#D9D9D9"/>
</g>
<g filter="url(#filter12_d_88_448)">
<path d="M15.4984 164L17.0835 167.319L20.7304 167.799L18.0634 170.332L18.7342 173.949L15.5009 172.195L12.2686 173.951L12.9372 170.334L10.2688 167.802L13.9153 167.32L15.4984 164Z" fill="#FBFBFC"/>
</g>
<g filter="url(#filter13_d_88_448)">
<path d="M213.5 164L215.085 167.319L218.732 167.799L216.065 170.332L216.736 173.949L213.502 172.195L210.27 173.951L210.939 170.334L208.27 167.802L211.917 167.32L213.5 164Z" fill="#FBFBFC"/>
</g>
<g filter="url(#filter14_d_88_448)">
<path d="M112.5 163L114.085 166.319L117.732 166.799L115.065 169.332L115.736 172.949L112.502 171.195L109.27 172.951L109.939 169.334L107.27 166.802L110.917 166.32L112.5 163Z" fill="#FBFBFC"/>
</g>
<g filter="url(#filter15_d_88_448)">
<path d="M310.5 163L312.085 166.319L315.732 166.799L313.065 169.332L313.736 172.949L310.502 171.195L307.27 172.951L307.939 169.334L305.27 166.802L308.917 166.32L310.5 163Z" fill="#FBFBFC"/>
</g>
<g filter="url(#filter16_i_88_448)">
<path d="M16.4993 200.086L18.1352 203.381L21.789 203.804L19.1613 206.378L19.8877 209.984L16.6277 208.28L13.4228 210.085L14.0358 206.458L11.3287 203.968L14.9675 203.43L16.4993 200.086Z" fill="#D9D9D9"/>
</g>
<g filter="url(#filter17_i_88_448)">
<path d="M213.499 200.001L215.135 203.295L218.789 203.719L216.161 206.293L216.888 209.898L213.628 208.195L210.423 210L211.036 206.373L208.329 203.883L211.967 203.345L213.499 200.001Z" fill="#D9D9D9"/>
</g>
<g filter="url(#filter18_i_88_448)">
<path d="M112.499 199.001L114.135 202.295L117.789 202.719L115.161 205.293L115.888 208.898L112.628 207.195L109.423 209L110.036 205.373L107.329 202.883L110.967 202.345L112.499 199.001Z" fill="#D9D9D9"/>
</g>
<g filter="url(#filter19_i_88_448)">
<path d="M310.499 199.001L312.135 202.295L315.789 202.719L313.161 205.293L313.888 208.898L310.628 207.195L307.423 209L308.036 205.373L305.329 202.883L308.967 202.345L310.499 199.001Z" fill="#D9D9D9"/>
</g>
<line x1="8" y1="40.4" x2="316.041" y2="40.4" stroke="black" stroke-width="0.2"/>
<line x1="8" y1="112.9" x2="316.041" y2="112.9" stroke="black" stroke-width="0.2"/>
<line x1="8" y1="184.9" x2="316.041" y2="184.9" stroke="black" stroke-width="0.2"/>
<line x1="13.0794" y1="3.91933" x2="312.079" y2="222.919" stroke="black" stroke-width="0.2"/>
<line y1="-0.1" x2="370.624" y2="-0.1" transform="matrix(-0.806748 0.590896 0.590896 0.806748 312.02 4)" stroke="black" stroke-width="0.2"/>
<defs>
<filter id="filter0_i_88_448" x="11.3125" y="61.0017" width="10.4585" height="10.0259" filterUnits="userSpaceOnUse" color-interpolation-filters="sRGB">
<feFlood flood-opacity="0" result="BackgroundImageFix"/>
<feBlend mode="normal" in="SourceGraphic" in2="BackgroundImageFix" result="shape"/>
<feColorMatrix in="SourceAlpha" type="matrix" values="0 0 0 0 0 0 0 0 0 0 0 0 0 0 0 0 0 0 127 0" result="hardAlpha"/>
<feOffset/>
<feGaussianBlur stdDeviation="2"/>
<feComposite in2="hardAlpha" operator="arithmetic" k2="-1" k3="1"/>
<feColorMatrix type="matrix" values="0 0 0 0 0 0 0 0 0 0 0 0 0 0 0 0 0 0 0.25 0"/>
<feBlend mode="normal" in2="shape" result="effect1_innerShadow_88_448"/>
</filter>
<filter id="filter1_i_88_448" x="208.176" y="61.0017" width="10.4585" height="10.0259" filterUnits="userSpaceOnUse" color-interpolation-filters="sRGB">
<feFlood flood-opacity="0" result="BackgroundImageFix"/>
<feBlend mode="normal" in="SourceGraphic" in2="BackgroundImageFix" result="shape"/>
<feColorMatrix in="SourceAlpha" type="matrix" values="0 0 0 0 0 0 0 0 0 0 0 0 0 0 0 0 0 0 127 0" result="hardAlpha"/>
<feOffset/>
<feGaussianBlur stdDeviation="2"/>
<feComposite in2="hardAlpha" operator="arithmetic" k2="-1" k3="1"/>
<feColorMatrix type="matrix" values="0 0 0 0 0 0 0 0 0 0 0 0 0 0 0 0 0 0 0.25 0"/>
<feBlend mode="normal" in2="shape" result="effect1_innerShadow_88_448"/>
</filter>
<filter id="filter2_i_88_448" x="107.176" y="60.0017" width="10.4585" height="10.0259" filterUnits="userSpaceOnUse" color-interpolation-filters="sRGB">
<feFlood flood-opacity="0" result="BackgroundImageFix"/>
<feBlend mode="normal" in="SourceGraphic" in2="BackgroundImageFix" result="shape"/>
<feColorMatrix in="SourceAlpha" type="matrix" values="0 0 0 0 0 0 0 0 0 0 0 0 0 0 0 0 0 0 127 0" result="hardAlpha"/>
<feOffset/>
<feGaussianBlur stdDeviation="2"/>
<feComposite in2="hardAlpha" operator="arithmetic" k2="-1" k3="1"/>
<feColorMatrix type="matrix" values="0 0 0 0 0 0 0 0 0 0 0 0 0 0 0 0 0 0 0.25 0"/>
<feBlend mode="normal" in2="shape" result="effect1_innerShadow_88_448"/>
</filter>
<filter id="filter3_i_88_448" x="305.176" y="60.0017" width="10.4585" height="10.0259" filterUnits="userSpaceOnUse" color-interpolation-filters="sRGB">
<feFlood flood-opacity="0" result="BackgroundImageFix"/>
<feBlend mode="normal" in="SourceGraphic" in2="BackgroundImageFix" result="shape"/>
<feColorMatrix in="SourceAlpha" type="matrix" values="0 0 0 0 0 0 0 0 0 0 0 0 0 0 0 0 0 0 127 0" result="hardAlpha"/>
<feOffset/>
<feGaussianBlur stdDeviation="2"/>
<feComposite in2="hardAlpha" operator="arithmetic" k2="-1" k3="1"/>
<feColorMatrix type="matrix" values="0 0 0 0 0 0 0 0 0 0 0 0 0 0 0 0 0 0 0.25 0"/>
<feBlend mode="normal" in2="shape" result="effect1_innerShadow_88_448"/>
</filter>
<filter id="filter4_i_88_448" x="9.2692" y="94" width="10.4616" height="9.94958" filterUnits="userSpaceOnUse" color-interpolation-filters="sRGB">
<feFlood flood-opacity="0" result="BackgroundImageFix"/>
<feBlend mode="normal" in="SourceGraphic" in2="BackgroundImageFix" result="shape"/>
<feColorMatrix in="SourceAlpha" type="matrix" values="0 0 0 0 0 0 0 0 0 0 0 0 0 0 0 0 0 0 127 0" result="hardAlpha"/>
<feOffset/>
<feGaussianBlur stdDeviation="2"/>
<feComposite in2="hardAlpha" operator="arithmetic" k2="-1" k3="1"/>
<feColorMatrix type="matrix" values="0 0 0 0 0 0 0 0 0 0 0 0 0 0 0 0 0 0 0.25 0"/>
<feBlend mode="normal" in2="shape" result="effect1_innerShadow_88_448"/>
</filter>
<filter id="filter5_i_88_448" x="208.269" y="94" width="10.4617" height="9.94958" filterUnits="userSpaceOnUse" color-interpolation-filters="sRGB">
<feFlood flood-opacity="0" result="BackgroundImageFix"/>
<feBlend mode="normal" in="SourceGraphic" in2="BackgroundImageFix" result="shape"/>
<feColorMatrix in="SourceAlpha" type="matrix" values="0 0 0 0 0 0 0 0 0 0 0 0 0 0 0 0 0 0 127 0" result="hardAlpha"/>
<feOffset/>
<feGaussianBlur stdDeviation="2"/>
<feComposite in2="hardAlpha" operator="arithmetic" k2="-1" k3="1"/>
<feColorMatrix type="matrix" values="0 0 0 0 0 0 0 0 0 0 0 0 0 0 0 0 0 0 0.25 0"/>
<feBlend mode="normal" in2="shape" result="effect1_innerShadow_88_448"/>
</filter>
<filter id="filter6_i_88_448" x="107.269" y="93" width="10.4616" height="9.94958" filterUnits="userSpaceOnUse" color-interpolation-filters="sRGB">
<feFlood flood-opacity="0" result="BackgroundImageFix"/>
<feBlend mode="normal" in="SourceGraphic" in2="BackgroundImageFix" result="shape"/>
<feColorMatrix in="SourceAlpha" type="matrix" values="0 0 0 0 0 0 0 0 0 0 0 0 0 0 0 0 0 0 127 0" result="hardAlpha"/>
<feOffset/>
<feGaussianBlur stdDeviation="2"/>
<feComposite in2="hardAlpha" operator="arithmetic" k2="-1" k3="1"/>
<feColorMatrix type="matrix" values="0 0 0 0 0 0 0 0 0 0 0 0 0 0 0 0 0 0 0.25 0"/>
<feBlend mode="normal" in2="shape" result="effect1_innerShadow_88_448"/>
</filter>
<filter id="filter7_i_88_448" x="305.269" y="93" width="10.4617" height="9.94958" filterUnits="userSpaceOnUse" color-interpolation-filters="sRGB">
<feFlood flood-opacity="0" result="BackgroundImageFix"/>
<feBlend mode="normal" in="SourceGraphic" in2="BackgroundImageFix" result="shape"/>
<feColorMatrix in="SourceAlpha" type="matrix" values="0 0 0 0 0 0 0 0 0 0 0 0 0 0 0 0 0 0 127 0" result="hardAlpha"/>
<feOffset/>
<feGaussianBlur stdDeviation="2"/>
<feComposite in2="hardAlpha" operator="arithmetic" k2="-1" k3="1"/>
<feColorMatrix type="matrix" values="0 0 0 0 0 0 0 0 0 0 0 0 0 0 0 0 0 0 0.25 0"/>
<feBlend mode="normal" in2="shape" result="effect1_innerShadow_88_448"/>
</filter>
<filter id="filter8_i_88_448" x="9.2692" y="129" width="10.4616" height="9.94958" filterUnits="userSpaceOnUse" color-interpolation-filters="sRGB">
<feFlood flood-opacity="0" result="BackgroundImageFix"/>
<feBlend mode="normal" in="SourceGraphic" in2="BackgroundImageFix" result="shape"/>
<feColorMatrix in="SourceAlpha" type="matrix" values="0 0 0 0 0 0 0 0 0 0 0 0 0 0 0 0 0 0 127 0" result="hardAlpha"/>
<feOffset/>
<feGaussianBlur stdDeviation="2"/>
<feComposite in2="hardAlpha" operator="arithmetic" k2="-1" k3="1"/>
<feColorMatrix type="matrix" values="0 0 0 0 0 0 0 0 0 0 0 0 0 0 0 0 0 0 0.25 0"/>
<feBlend mode="normal" in2="shape" result="effect1_innerShadow_88_448"/>
</filter>
<filter id="filter9_i_88_448" x="208.269" y="129" width="10.4617" height="9.94958" filterUnits="userSpaceOnUse" color-interpolation-filters="sRGB">
<feFlood flood-opacity="0" result="BackgroundImageFix"/>
<feBlend mode="normal" in="SourceGraphic" in2="BackgroundImageFix" result="shape"/>
<feColorMatrix in="SourceAlpha" type="matrix" values="0 0 0 0 0 0 0 0 0 0 0 0 0 0 0 0 0 0 127 0" result="hardAlpha"/>
<feOffset/>
<feGaussianBlur stdDeviation="2"/>
<feComposite in2="hardAlpha" operator="arithmetic" k2="-1" k3="1"/>
<feColorMatrix type="matrix" values="0 0 0 0 0 0 0 0 0 0 0 0 0 0 0 0 0 0 0.25 0"/>
<feBlend mode="normal" in2="shape" result="effect1_innerShadow_88_448"/>
</filter>
<filter id="filter10_i_88_448" x="107.269" y="128" width="10.4616" height="9.94958" filterUnits="userSpaceOnUse" color-interpolation-filters="sRGB">
<feFlood flood-opacity="0" result="BackgroundImageFix"/>
<feBlend mode="normal" in="SourceGraphic" in2="BackgroundImageFix" result="shape"/>
<feColorMatrix in="SourceAlpha" type="matrix" values="0 0 0 0 0 0 0 0 0 0 0 0 0 0 0 0 0 0 127 0" result="hardAlpha"/>
<feOffset/>
<feGaussianBlur stdDeviation="2"/>
<feComposite in2="hardAlpha" operator="arithmetic" k2="-1" k3="1"/>
<feColorMatrix type="matrix" values="0 0 0 0 0 0 0 0 0 0 0 0 0 0 0 0 0 0 0.25 0"/>
<feBlend mode="normal" in2="shape" result="effect1_innerShadow_88_448"/>
</filter>
<filter id="filter11_i_88_448" x="305.269" y="128" width="10.4617" height="9.94958" filterUnits="userSpaceOnUse" color-interpolation-filters="sRGB">
<feFlood flood-opacity="0" result="BackgroundImageFix"/>
<feBlend mode="normal" in="SourceGraphic" in2="BackgroundImageFix" result="shape"/>
<feColorMatrix in="SourceAlpha" type="matrix" values="0 0 0 0 0 0 0 0 0 0 0 0 0 0 0 0 0 0 127 0" result="hardAlpha"/>
<feOffset/>
<feGaussianBlur stdDeviation="2"/>
<feComposite in2="hardAlpha" operator="arithmetic" k2="-1" k3="1"/>
<feColorMatrix type="matrix" values="0 0 0 0 0 0 0 0 0 0 0 0 0 0 0 0 0 0 0.25 0"/>
<feBlend mode="normal" in2="shape" result="effect1_innerShadow_88_448"/>
</filter>
<filter id="filter12_d_88_448" x="4.26877" y="158" width="22.4616" height="21.9506" filterUnits="userSpaceOnUse" color-interpolation-filters="sRGB">
<feFlood flood-opacity="0" result="BackgroundImageFix"/>
<feColorMatrix in="SourceAlpha" type="matrix" values="0 0 0 0 0 0 0 0 0 0 0 0 0 0 0 0 0 0 127 0" result="hardAlpha"/>
<feOffset/>
<feGaussianBlur stdDeviation="3"/>
<feComposite in2="hardAlpha" operator="out"/>
<feColorMatrix type="matrix" values="0 0 0 0 1 0 0 0 0 1 0 0 0 0 1 0 0 0 1 0"/>
<feBlend mode="normal" in2="BackgroundImageFix" result="effect1_dropShadow_88_448"/>
<feBlend mode="normal" in="SourceGraphic" in2="effect1_dropShadow_88_448" result="shape"/>
</filter>
<filter id="filter13_d_88_448" x="202.27" y="158" width="22.4616" height="21.9506" filterUnits="userSpaceOnUse" color-interpolation-filters="sRGB">
<feFlood flood-opacity="0" result="BackgroundImageFix"/>
<feColorMatrix in="SourceAlpha" type="matrix" values="0 0 0 0 0 0 0 0 0 0 0 0 0 0 0 0 0 0 127 0" result="hardAlpha"/>
<feOffset/>
<feGaussianBlur stdDeviation="3"/>
<feComposite in2="hardAlpha" operator="out"/>
<feColorMatrix type="matrix" values="0 0 0 0 1 0 0 0 0 1 0 0 0 0 1 0 0 0 1 0"/>
<feBlend mode="normal" in2="BackgroundImageFix" result="effect1_dropShadow_88_448"/>
<feBlend mode="normal" in="SourceGraphic" in2="effect1_dropShadow_88_448" result="shape"/>
</filter>
<filter id="filter14_d_88_448" x="101.27" y="157" width="22.4616" height="21.9506" filterUnits="userSpaceOnUse" color-interpolation-filters="sRGB">
<feFlood flood-opacity="0" result="BackgroundImageFix"/>
<feColorMatrix in="SourceAlpha" type="matrix" values="0 0 0 0 0 0 0 0 0 0 0 0 0 0 0 0 0 0 127 0" result="hardAlpha"/>
<feOffset/>
<feGaussianBlur stdDeviation="3"/>
<feComposite in2="hardAlpha" operator="out"/>
<feColorMatrix type="matrix" values="0 0 0 0 1 0 0 0 0 1 0 0 0 0 1 0 0 0 1 0"/>
<feBlend mode="normal" in2="BackgroundImageFix" result="effect1_dropShadow_88_448"/>
<feBlend mode="normal" in="SourceGraphic" in2="effect1_dropShadow_88_448" result="shape"/>
</filter>
<filter id="filter15_d_88_448" x="299.27" y="157" width="22.4616" height="21.9506" filterUnits="userSpaceOnUse" color-interpolation-filters="sRGB">
<feFlood flood-opacity="0" result="BackgroundImageFix"/>
<feColorMatrix in="SourceAlpha" type="matrix" values="0 0 0 0 0 0 0 0 0 0 0 0 0 0 0 0 0 0 127 0" result="hardAlpha"/>
<feOffset/>
<feGaussianBlur stdDeviation="3"/>
<feComposite in2="hardAlpha" operator="out"/>
<feColorMatrix type="matrix" values="0 0 0 0 1 0 0 0 0 1 0 0 0 0 1 0 0 0 1 0"/>
<feBlend mode="normal" in2="BackgroundImageFix" result="effect1_dropShadow_88_448"/>
<feBlend mode="normal" in="SourceGraphic" in2="effect1_dropShadow_88_448" result="shape"/>
</filter>
<filter id="filter16_i_88_448" x="11.3287" y="200.086" width="10.4603" height="9.99902" filterUnits="userSpaceOnUse" color-interpolation-filters="sRGB">
<feFlood flood-opacity="0" result="BackgroundImageFix"/>
<feBlend mode="normal" in="SourceGraphic" in2="BackgroundImageFix" result="shape"/>
<feColorMatrix in="SourceAlpha" type="matrix" values="0 0 0 0 0 0 0 0 0 0 0 0 0 0 0 0 0 0 127 0" result="hardAlpha"/>
<feOffset/>
<feGaussianBlur stdDeviation="2"/>
<feComposite in2="hardAlpha" operator="arithmetic" k2="-1" k3="1"/>
<feColorMatrix type="matrix" values="0 0 0 0 0 0 0 0 0 0 0 0 0 0 0 0 0 0 0.25 0"/>
<feBlend mode="normal" in2="shape" result="effect1_innerShadow_88_448"/>
</filter>
<filter id="filter17_i_88_448" x="208.329" y="200.001" width="10.4603" height="9.99902" filterUnits="userSpaceOnUse" color-interpolation-filters="sRGB">
<feFlood flood-opacity="0" result="BackgroundImageFix"/>
<feBlend mode="normal" in="SourceGraphic" in2="BackgroundImageFix" result="shape"/>
<feColorMatrix in="SourceAlpha" type="matrix" values="0 0 0 0 0 0 0 0 0 0 0 0 0 0 0 0 0 0 127 0" result="hardAlpha"/>
<feOffset/>
<feGaussianBlur stdDeviation="2"/>
<feComposite in2="hardAlpha" operator="arithmetic" k2="-1" k3="1"/>
<feColorMatrix type="matrix" values="0 0 0 0 0 0 0 0 0 0 0 0 0 0 0 0 0 0 0.25 0"/>
<feBlend mode="normal" in2="shape" result="effect1_innerShadow_88_448"/>
</filter>
<filter id="filter18_i_88_448" x="107.329" y="199.001" width="10.4603" height="9.99902" filterUnits="userSpaceOnUse" color-interpolation-filters="sRGB">
<feFlood flood-opacity="0" result="BackgroundImageFix"/>
<feBlend mode="normal" in="SourceGraphic" in2="BackgroundImageFix" result="shape"/>
<feColorMatrix in="SourceAlpha" type="matrix" values="0 0 0 0 0 0 0 0 0 0 0 0 0 0 0 0 0 0 127 0" result="hardAlpha"/>
<feOffset/>
<feGaussianBlur stdDeviation="2"/>
<feComposite in2="hardAlpha" operator="arithmetic" k2="-1" k3="1"/>
<feColorMatrix type="matrix" values="0 0 0 0 0 0 0 0 0 0 0 0 0 0 0 0 0 0 0.25 0"/>
<feBlend mode="normal" in2="shape" result="effect1_innerShadow_88_448"/>
</filter>
<filter id="filter19_i_88_448" x="305.329" y="199.001" width="10.4603" height="9.99902" filterUnits="userSpaceOnUse" color-interpolation-filters="sRGB">
<feFlood flood-opacity="0" result="BackgroundImageFix"/>
<feBlend mode="normal" in="SourceGraphic" in2="BackgroundImageFix" result="shape"/>
<feColorMatrix in="SourceAlpha" type="matrix" values="0 0 0 0 0 0 0 0 0 0 0 0 0 0 0 0 0 0 127 0" result="hardAlpha"/>
<feOffset/>
<feGaussianBlur stdDeviation="2"/>
<feComposite in2="hardAlpha" operator="arithmetic" k2="-1" k3="1"/>
<feColorMatrix type="matrix" values="0 0 0 0 0 0 0 0 0 0 0 0 0 0 0 0 0 0 0.25 0"/>
<feBlend mode="normal" in2="shape" result="effect1_innerShadow_88_448"/>
</filter>
<linearGradient id="paint0_linear_88_448" x1="163" y1="0" x2="163" y2="230" gradientUnits="userSpaceOnUse">
<stop stop-color="#B11ECB"/>
<stop offset="1" stop-color="#1D27BA"/>
</linearGradient>
<linearGradient id="paint1_linear_88_448" x1="309.752" y1="4" x2="309.752" y2="226.138" gradientUnits="userSpaceOnUse">
<stop stop-color="#3C025E"/>
<stop offset="0.25614" stop-color="#A703CC"/>
<stop offset="0.51228" stop-color="#180223"/>
<stop offset="0.75614" stop-color="#3A024D"/>
<stop offset="1" stop-color="#380151"/>
</linearGradient>
<linearGradient id="paint2_linear_88_448" x1="213.003" y1="5" x2="213.003" y2="225.5" gradientUnits="userSpaceOnUse">
<stop stop-color="#3C025E"/>
<stop offset="0.25614" stop-color="#A703CC"/>
<stop offset="0.51228" stop-color="#180223"/>
<stop offset="0.75614" stop-color="#3A024D"/>
<stop offset="1" stop-color="#380151"/>
</linearGradient>
<linearGradient id="paint3_linear_88_448" x1="112.999" y1="5" x2="112.999" y2="225.498" gradientUnits="userSpaceOnUse">
<stop stop-color="#3C025E"/>
<stop offset="0.25614" stop-color="#A703CC"/>
<stop offset="0.51228" stop-color="#180223"/>
<stop offset="0.75614" stop-color="#3A024D"/>
<stop offset="1" stop-color="#380151"/>
</linearGradient>
<linearGradient id="paint4_linear_88_448" x1="16.25" y1="4.5" x2="16.25" y2="224.5" gradientUnits="userSpaceOnUse">
<stop stop-color="#3C025E"/>
<stop offset="0.25614" stop-color="#A703CC"/>
<stop offset="0.51228" stop-color="#180223"/>
<stop offset="0.75614" stop-color="#3A024D"/>
<stop offset="1" stop-color="#380151"/>
</linearGradient>
<linearGradient id="paint5_linear_88_448" x1="63.5" y1="5" x2="63.5" y2="225" gradientUnits="userSpaceOnUse">
<stop offset="0.0538042" stop-color="#DFB1FB"/>
<stop offset="0.25" stop-color="#995EE0"/>
<stop offset="0.5" stop-color="#3F2093"/>
<stop offset="0.75" stop-color="#995EE0"/>
<stop offset="1" stop-color="#DFB1FB"/>
</linearGradient>
<linearGradient id="paint6_linear_88_448" x1="161" y1="5" x2="161" y2="225" gradientUnits="userSpaceOnUse">
<stop offset="0.0538042" stop-color="#DFB1FB"/>
<stop offset="0.25" stop-color="#995EE0"/>
<stop offset="0.5" stop-color="#3F2093"/>
<stop offset="0.75" stop-color="#995EE0"/>
<stop offset="1" stop-color="#DFB1FB"/>
</linearGradient>
<linearGradient id="paint7_linear_88_448" x1="261.5" y1="5" x2="261.5" y2="225" gradientUnits="userSpaceOnUse">
<stop offset="0.0538042" stop-color="#DFB1FB"/>
<stop offset="0.25" stop-color="#995EE0"/>
<stop offset="0.5" stop-color="#3F2093"/>
<stop offset="0.75" stop-color="#995EE0"/>
<stop offset="1" stop-color="#DFB1FB"/>
</linearGradient>
</defs>
</svg>
