<svg width="84" height="221" viewBox="0 0 84 221" fill="none" xmlns="http://www.w3.org/2000/svg">
<path d="M84 0.5L3.5 0C3.5 0 -0.00445316 67.5312 3.71756e-06 110.5C0.00444035 153.274 4.00002 220 4.00002 220L84 220.5C84 220.5 82.5106 154.071 82.5 111.5C82.4893 68.1478 84 0.5 84 0.5Z" fill="url(#paint0_linear_88_379)"/>
<path d="M82.4668 1.99023C82.4579 2.40166 82.4476 2.89275 82.4355 3.45898C82.3942 5.39388 82.3354 8.20662 82.2646 11.7168C82.1232 18.7374 81.9343 28.5503 81.7461 39.7178C81.3697 62.0502 80.9946 89.8106 81 111.5C81.0053 132.799 81.3802 160.06 81.7539 181.99C81.9408 192.956 82.1278 202.591 82.2676 209.485C82.3375 212.932 82.3958 215.695 82.4365 217.595C82.448 218.129 82.4572 218.596 82.4658 218.99L5.41504 218.508C5.39037 218.083 5.36071 217.567 5.32617 216.964C5.21699 215.057 5.06028 212.284 4.87305 208.824C4.49857 201.904 3.99947 192.23 3.5 181.222C2.50075 159.198 1.50222 131.851 1.5 110.5C1.49777 89.0467 2.37165 61.4457 3.24707 39.1953C3.68466 28.0731 4.12284 18.2925 4.45117 11.293C4.61533 7.79346 4.75191 4.98874 4.84766 3.05957C4.87767 2.45478 4.90328 1.93599 4.9248 1.50879L82.4668 1.99023Z" stroke="#D9D9D9" stroke-opacity="0.2" stroke-width="3"/>
<defs>
<linearGradient id="paint0_linear_88_379" x1="42" y1="0.5" x2="42" y2="220.5" gradientUnits="userSpaceOnUse">
<stop offset="0.0538042" stop-color="#DFB1FB"/>
<stop offset="0.25" stop-color="#995EE0"/>
<stop offset="0.5" stop-color="#3F2093"/>
<stop offset="0.75" stop-color="#995EE0"/>
<stop offset="1" stop-color="#DFB1FB"/>
</linearGradient>
</defs>
</svg>
