<svg width="84" height="221" viewBox="0 0 84 221" fill="none" xmlns="http://www.w3.org/2000/svg">
<path d="M81 0H0C0 0 1.49554 70.0312 1.5 113C1.50444 155.774 0 220.5 0 220.5H80.5C80.5 220.5 84.0106 155.071 84 112.5C83.9893 69.1478 81 0 81 0Z" fill="url(#paint0_linear_88_409)"/>
<path d="M79.5625 1.5C79.5811 1.9431 79.6037 2.48471 79.6299 3.11816C79.7116 5.09252 79.8286 7.9616 79.9688 11.54C80.2491 18.6976 80.6229 28.6929 80.9971 40.042C81.7456 62.7451 82.4946 90.8499 82.5 112.5C82.5053 133.754 81.631 160.729 80.7549 182.403C80.3169 193.238 79.8786 202.743 79.5498 209.539C79.3854 212.937 79.2482 215.657 79.1523 217.528C79.1231 218.1 79.0974 218.592 79.0762 219H1.53418C1.54269 218.622 1.55318 218.177 1.56445 217.669C1.60559 215.815 1.66388 213.119 1.73438 209.75C1.87537 203.012 2.06316 193.583 2.25098 182.816C2.62656 161.286 3.00222 134.4 3 113C2.99777 91.5027 2.62251 63.2424 2.24805 40.3623C2.0608 28.9212 1.8737 18.8229 1.7334 11.585C1.66325 7.96602 1.60439 5.06182 1.56348 3.0625C1.55109 2.45696 1.54026 1.9343 1.53125 1.5H79.5625Z" stroke="#D9D9D9" stroke-opacity="0.2" stroke-width="3"/>
<defs>
<linearGradient id="paint0_linear_88_409" x1="41.5" y1="0" x2="41.5" y2="220" gradientUnits="userSpaceOnUse">
<stop offset="0.0538042" stop-color="#DFB1FB"/>
<stop offset="0.25" stop-color="#995EE0"/>
<stop offset="0.5" stop-color="#3F2093"/>
<stop offset="0.75" stop-color="#995EE0"/>
<stop offset="1" stop-color="#DFB1FB"/>
</linearGradient>
</defs>
</svg>
