<svg width="86" height="221" viewBox="0 0 86 221" fill="none" xmlns="http://www.w3.org/2000/svg">
<path d="M84.2267 0H1C1 0 -0.004447 68.0312 9.88211e-06 111C0.00444651 153.774 1.5 220.5 1.5 220.5H84C84 220.5 85.5106 152.571 85.5 110C85.4893 66.6478 84.2267 0 84.2267 0Z" fill="url(#paint0_linear_88_408)"/>
<path d="M82.7539 1.5C82.7615 1.91105 82.7709 2.40448 82.7812 2.97559C82.8158 4.88221 82.8655 7.65493 82.9248 11.1172C83.0433 18.0417 83.2009 27.7261 83.3594 38.7646C83.6763 60.8441 83.9946 88.3351 84 110C84.0053 131.272 83.6302 158.886 83.2539 181.188C83.0658 192.338 82.8778 202.158 82.7363 209.19C82.6656 212.706 82.6067 215.526 82.5654 217.466C82.5527 218.062 82.5414 218.575 82.5322 219H2.9668C2.95783 218.588 2.94785 218.092 2.93555 217.518C2.89466 215.61 2.83575 212.836 2.76562 209.375C2.62537 202.452 2.43816 192.777 2.25098 181.765C1.87656 159.738 1.50222 132.373 1.5 111C1.49777 89.5245 1.7475 61.7812 1.99805 39.4033C2.12331 28.2153 2.24869 18.3698 2.34277 11.3213C2.38982 7.79706 2.42958 4.97212 2.45703 3.02832C2.46541 2.43509 2.47244 1.92392 2.47852 1.5H82.7539Z" stroke="#D9D9D9" stroke-opacity="0.2" stroke-width="3"/>
<defs>
<linearGradient id="paint0_linear_88_408" x1="40.5" y1="0" x2="40.5" y2="220" gradientUnits="userSpaceOnUse">
<stop offset="0.0538042" stop-color="#DFB1FB"/>
<stop offset="0.25" stop-color="#995EE0"/>
<stop offset="0.5" stop-color="#3F2093"/>
<stop offset="0.75" stop-color="#995EE0"/>
<stop offset="1" stop-color="#DFB1FB"/>
</linearGradient>
</defs>
</svg>
