<svg width="15" height="15" viewBox="0 0 15 15" fill="none" xmlns="http://www.w3.org/2000/svg">
<path d="M13.8814 12.4496C14.0717 12.6398 14.1785 12.8978 14.1785 13.1668C14.1785 13.4358 14.0717 13.6938 13.8814 13.884C13.6912 14.0742 13.4333 14.181 13.1643 14.181C12.8953 14.181 12.6373 14.0742 12.4471 13.884L7.0901 8.52532L1.73144 13.8823C1.54123 14.0725 1.28325 14.1794 1.01426 14.1794C0.745259 14.1794 0.487279 14.0725 0.297069 13.8823C0.106859 13.6921 4.00837e-09 13.4341 0 13.1651C-4.00837e-09 12.8961 0.106859 12.6381 0.297069 12.4479L5.65573 7.09094L0.298756 1.73229C0.108546 1.54208 0.00168754 1.2841 0.00168754 1.0151C0.00168754 0.746103 0.108546 0.488122 0.298756 0.297913C0.488966 0.107703 0.746946 0.000843611 1.01594 0.000843608C1.28494 0.000843606 1.54292 0.107703 1.73313 0.297913L7.0901 5.65657L12.4488 0.297069C12.639 0.106859 12.8969 -4.4815e-09 13.1659 0C13.4349 4.4815e-09 13.6929 0.106859 13.8831 0.297069C14.0733 0.487279 14.1802 0.745259 14.1802 1.01426C14.1802 1.28325 14.0733 1.54123 13.8831 1.73144L8.52448 7.09094L13.8814 12.4496Z" fill="white"/>
</svg>
