<svg width="19" height="19" viewBox="0 0 19 19" fill="none" xmlns="http://www.w3.org/2000/svg">
<path d="M9.1125 0C7.31022 0 5.54841 0.534439 4.04987 1.53573C2.55133 2.53703 1.38336 3.96021 0.693652 5.6253C0.00394832 7.29039 -0.17651 9.12261 0.175098 10.8903C0.526706 12.6579 1.39459 14.2816 2.66899 15.556C3.9434 16.8304 5.56709 17.6983 7.33474 18.0499C9.1024 18.4015 10.9346 18.2211 12.5997 17.5314C14.2648 16.8417 15.688 15.6737 16.6893 14.1751C17.6906 12.6766 18.225 10.9148 18.225 9.1125C18.2223 6.69654 17.2614 4.38029 15.5531 2.67195C13.8447 0.963605 11.5285 0.00267994 9.1125 0ZM9.1125 16.2C7.71073 16.2 6.34043 15.7843 5.1749 15.0055C4.00937 14.2268 3.10094 13.1198 2.56451 11.8248C2.02807 10.5297 1.88772 9.10464 2.16119 7.7298C2.43466 6.35496 3.10968 5.09209 4.10088 4.10088C5.09209 3.10968 6.35496 2.43466 7.7298 2.16118C9.10464 1.88771 10.5297 2.02807 11.8248 2.5645C13.1198 3.10094 14.2268 4.00936 15.0055 5.1749C15.7843 6.34043 16.2 7.71073 16.2 9.1125C16.198 10.9916 15.4506 12.7932 14.1219 14.1219C12.7932 15.4506 10.9916 16.198 9.1125 16.2ZM14.85 9.1125C14.85 9.38103 14.7433 9.63857 14.5534 9.82845C14.3636 10.0183 14.106 10.125 13.8375 10.125H9.1125C8.84397 10.125 8.58644 10.0183 8.39656 9.82845C8.20668 9.63857 8.1 9.38103 8.1 9.1125V4.3875C8.1 4.11897 8.20668 3.86143 8.39656 3.67155C8.58644 3.48167 8.84397 3.375 9.1125 3.375C9.38104 3.375 9.63857 3.48167 9.82845 3.67155C10.0183 3.86143 10.125 4.11897 10.125 4.3875V8.1H13.8375C14.106 8.1 14.3636 8.20667 14.5534 8.39655C14.7433 8.58644 14.85 8.84397 14.85 9.1125Z" fill="white"/>
</svg>
