<svg width="18" height="17" viewBox="0 0 18 17" fill="none" xmlns="http://www.w3.org/2000/svg">
<path d="M3.366 0.893827C3.28696 0.804734 3.19103 0.732214 3.08376 0.680471C2.97649 0.628727 2.86002 0.598788 2.74109 0.592391C2.62217 0.585993 2.50315 0.603262 2.39095 0.643199C2.27875 0.683135 2.17559 0.744944 2.08745 0.825043C1.99931 0.905142 1.92795 1.00194 1.87749 1.10982C1.82704 1.2177 1.7985 1.33453 1.79353 1.45352C1.78856 1.57252 1.80725 1.69131 1.84853 1.80303C1.88981 1.91474 1.95285 2.01715 2.034 2.10433L3.93825 4.19908H1.5C1.10218 4.19908 0.720644 4.35711 0.43934 4.63842C0.158035 4.91972 0 5.30125 0 5.69908V10.4991C0 10.8969 0.158035 11.2784 0.43934 11.5597C0.720644 11.841 1.10218 11.9991 1.5 11.9991H4.791L9.94725 16.0093C10.0802 16.1128 10.2396 16.1769 10.4072 16.1943C10.5748 16.2116 10.7439 16.1816 10.8953 16.1076C11.0467 16.0336 11.1742 15.9186 11.2635 15.7756C11.3527 15.6327 11.4 15.4676 11.4 15.2991V12.4071L14.034 15.3043C14.1954 15.4777 14.4186 15.5804 14.6552 15.5903C14.8918 15.6002 15.1228 15.5164 15.298 15.3571C15.4733 15.1979 15.5787 14.9759 15.5914 14.7394C15.6042 14.503 15.5232 14.271 15.366 14.0938L3.366 0.893827ZM1.8 5.99908H4.2V10.1991H1.8V5.99908ZM9.6 13.4586L6 10.6588V6.46708L9.6 10.4241V13.4586ZM7.275 3.40858C7.20245 3.31526 7.149 3.20857 7.11769 3.09459C7.08638 2.98061 7.07783 2.86158 7.09253 2.7443C7.10722 2.62702 7.14487 2.51378 7.20334 2.41105C7.2618 2.30832 7.33992 2.21811 7.43325 2.14558L9.9465 0.190326C10.0794 0.086695 10.2387 0.0224472 10.4063 0.00489582C10.5738 -0.0126555 10.743 0.0171947 10.8945 0.0910488C11.0459 0.164903 11.1736 0.279794 11.263 0.422646C11.3524 0.565497 11.3998 0.73057 11.4 0.899077V5.61958C11.4 5.85827 11.3052 6.08719 11.1364 6.25597C10.9676 6.42476 10.7387 6.51958 10.5 6.51958C10.2613 6.51958 10.0324 6.42476 9.8636 6.25597C9.69482 6.08719 9.6 5.85827 9.6 5.61958V2.73958L8.53875 3.56458C8.44546 3.63728 8.33875 3.69088 8.22472 3.72232C8.1107 3.75375 7.9916 3.7624 7.87423 3.74777C7.75686 3.73314 7.64353 3.69553 7.54071 3.63707C7.43788 3.57861 7.3476 3.50045 7.275 3.40708V3.40858ZM12.825 7.10983C12.6776 6.92944 12.6058 6.69892 12.6249 6.46673C12.6439 6.23454 12.7522 6.01877 12.9271 5.86481C13.1019 5.71085 13.3297 5.63069 13.5624 5.64118C13.7951 5.65167 14.0147 5.75201 14.175 5.92108C14.6228 6.43002 14.9029 7.0645 14.9774 7.73827C15.0519 8.41203 14.917 9.09238 14.5913 9.68683C14.4697 9.88266 14.2776 10.0244 14.0547 10.0828C13.8317 10.1412 13.5948 10.1118 13.3929 10.0008C13.1909 9.88969 13.0393 9.70536 12.9692 9.48578C12.8991 9.2662 12.916 9.02811 13.0163 8.82058C13.1382 8.59974 13.2014 8.35133 13.2 8.09908C13.1997 7.73421 13.0663 7.38198 12.825 7.10833V7.10983ZM18 8.09908C17.999 9.55839 17.4926 10.9723 16.5668 12.1003C16.4922 12.1931 16.3999 12.2702 16.2953 12.3271C16.1907 12.384 16.0759 12.4195 15.9574 12.4317C15.839 12.4439 15.7193 12.4325 15.6053 12.3981C15.4913 12.3637 15.3853 12.307 15.2934 12.2314C15.2014 12.1557 15.1254 12.0626 15.0697 11.9573C15.0141 11.8521 14.9798 11.7369 14.969 11.6183C14.9582 11.4997 14.971 11.3802 15.0067 11.2666C15.0424 11.153 15.1003 11.0476 15.177 10.9566C15.8593 10.1265 16.2221 9.07955 16.1997 8.00521C16.1773 6.93087 15.7711 5.90001 15.0548 5.09908C14.9727 5.01157 14.909 4.90855 14.8674 4.79607C14.8258 4.6836 14.807 4.56394 14.8123 4.44412C14.8176 4.3243 14.8467 4.20674 14.8981 4.09835C14.9494 3.98996 15.0219 3.89293 15.1113 3.81295C15.2006 3.73297 15.3051 3.67167 15.4185 3.63263C15.5319 3.5936 15.652 3.57762 15.7716 3.58564C15.8913 3.59367 16.0082 3.62553 16.1153 3.67935C16.2225 3.73318 16.3179 3.80788 16.3958 3.89908C17.4296 5.05364 18.0009 6.54925 18 8.09908Z" fill="white"/>
</svg>
