<svg width="15" height="15" viewBox="0 0 15 15" fill="none" xmlns="http://www.w3.org/2000/svg">
<path d="M14.2857 7.14286C14.2857 7.37019 14.1954 7.58821 14.0347 7.74895C13.8739 7.9097 13.6559 8.00001 13.4286 8.00001H8.00001V13.4286C8.00001 13.6559 7.9097 13.8739 7.74895 14.0347C7.58821 14.1954 7.37019 14.2857 7.14286 14.2857C6.91553 14.2857 6.69752 14.1954 6.53677 14.0347C6.37602 13.8739 6.28572 13.6559 6.28572 13.4286V8.00001H0.857143C0.629815 8.00001 0.411797 7.9097 0.251052 7.74895C0.090306 7.58821 0 7.37019 0 7.14286C0 6.91553 0.090306 6.69752 0.251052 6.53677C0.411797 6.37602 0.629815 6.28572 0.857143 6.28572H6.28572V0.857143C6.28572 0.629815 6.37602 0.411797 6.53677 0.251052C6.69752 0.090306 6.91553 0 7.14286 0C7.37019 0 7.58821 0.090306 7.74895 0.251052C7.9097 0.411797 8.00001 0.629815 8.00001 0.857143V6.28572H13.4286C13.6559 6.28572 13.8739 6.37602 14.0347 6.53677C14.1954 6.69752 14.2857 6.91553 14.2857 7.14286Z" fill="white"/>
</svg>
