<svg width="12" height="17" viewBox="0 0 12 17" fill="none" xmlns="http://www.w3.org/2000/svg">
<path d="M11.475 5.0625C11.475 7.54903 9.43228 9.62297 6.75 10.0457V10.125C6.75 10.3935 6.64333 10.6511 6.45345 10.8409C6.26356 11.0308 6.00603 11.1375 5.7375 11.1375C5.46897 11.1375 5.21143 11.0308 5.02155 10.8409C4.83167 10.6511 4.725 10.3935 4.725 10.125V9.1125C4.725 8.84397 4.83167 8.58644 5.02155 8.39656C5.21143 8.20668 5.46897 8.1 5.7375 8.1C7.78444 8.1 9.45 6.73734 9.45 5.0625C9.45 3.38766 7.78444 2.025 5.7375 2.025C3.69056 2.025 2.025 3.38766 2.025 5.0625C2.025 5.33103 1.91833 5.58857 1.72845 5.77845C1.53857 5.96833 1.28103 6.075 1.0125 6.075C0.743968 6.075 0.486435 5.96833 0.296554 5.77845C0.106674 5.58857 0 5.33103 0 5.0625C0 2.27138 2.57344 0 5.7375 0C8.90156 0 11.475 2.27138 11.475 5.0625ZM5.7375 12.825C5.40374 12.825 5.07748 12.924 4.79998 13.1094C4.52247 13.2948 4.30618 13.5584 4.17845 13.8667C4.05073 14.1751 4.01731 14.5144 4.08242 14.8417C4.14754 15.1691 4.30826 15.4697 4.54426 15.7057C4.78026 15.9417 5.08094 16.1025 5.40829 16.1676C5.73563 16.2327 6.07493 16.1993 6.38328 16.0715C6.69163 15.9438 6.95518 15.7275 7.14061 15.45C7.32603 15.1725 7.425 14.8463 7.425 14.5125C7.425 14.0649 7.24721 13.6357 6.93074 13.3193C6.61427 13.0028 6.18505 12.825 5.7375 12.825Z" fill="white"/>
</svg>
